<?xml version="1.0" encoding="utf-8"?>
<!-- Generator: Adobe Illustrator 21.0.0, SVG Export Plug-In . SVG Version: 6.00 Build 0)  -->
<svg version="1.1" xmlns="http://www.w3.org/2000/svg" xmlns:xlink="http://www.w3.org/1999/xlink" x="0px" y="0px"  width="127px" height="127px"
	 viewBox="0 0 127 127" style="enable-background:new 0 0 127 127;" xml:space="preserve">
<g id="Layer_1">
	<g>
		<g>
			<g>
				<g>
					<path style="fill-rule:evenodd;clip-rule:evenodd;" d="M84.6,63.1L84.6,63.1C84.6,63.1,84.6,63.1,84.6,63.1
						c-0.5,0-0.9,0.4-0.9,0.9c0,0.5,0.4,0.9,0.9,0.9c0,0,0,0,0,0v0h1.8v-1.8H84.6z"/>
				</g>
				<g>
					<rect x="86.5" y="63.1" style="fill-rule:evenodd;clip-rule:evenodd;" width="1.8" height="1.8"/>
				</g>
				<g>
					<rect x="88.3" y="63.1" style="fill-rule:evenodd;clip-rule:evenodd;" width="1.8" height="1.8"/>
				</g>
				<g>
					<rect x="90.1" y="63.1" style="fill-rule:evenodd;clip-rule:evenodd;" width="1.8" height="1.8"/>
				</g>
				<g>
					<rect x="92" y="63.1" style="fill-rule:evenodd;clip-rule:evenodd;" width="1.8" height="1.8"/>
				</g>
				<g>
					<rect x="93.8" y="63.1" style="fill-rule:evenodd;clip-rule:evenodd;" width="1.8" height="1.8"/>
				</g>
				<g>
					<rect x="95.7" y="63.1" style="fill-rule:evenodd;clip-rule:evenodd;" width="1.8" height="1.8"/>
				</g>
				<g>
					<rect x="97.5" y="63.1" style="fill-rule:evenodd;clip-rule:evenodd;" width="1.8" height="1.8"/>
				</g>
				<g>
					<rect x="99.3" y="63.1" style="fill-rule:evenodd;clip-rule:evenodd;" width="1.8" height="1.8"/>
				</g>
				<g>
					<rect x="101.2" y="63.1" style="fill-rule:evenodd;clip-rule:evenodd;" width="1.8" height="1.8"/>
				</g>
				<g>
					<rect x="103" y="63.1" style="fill-rule:evenodd;clip-rule:evenodd;" width="1.8" height="1.8"/>
				</g>
				<g>
					<polygon style="fill-rule:evenodd;clip-rule:evenodd;" points="104.9,66.5 104.9,69 111.1,64 104.9,59 104.9,61.5 					"/>
				</g>
			</g>
		</g>
	</g>
	<path style="fill:none;stroke:#000000;stroke-miterlimit:10;" d="M84,64"/>
	<path style="fill:none;stroke:#000000;stroke-miterlimit:10;" d="M44,64"/>
	<g>
		<g>
			<g>
				<g>
					<path style="fill-rule:evenodd;clip-rule:evenodd;" d="M43.4,64.9L43.4,64.9C43.4,64.9,43.4,64.9,43.4,64.9
						c0.5,0,0.9-0.4,0.9-0.9c0-0.5-0.4-0.9-0.9-0.9c0,0,0,0,0,0v0h-1.8v1.8H43.4z"/>
				</g>
				<g>
					<rect x="39.7" y="63.1" style="fill-rule:evenodd;clip-rule:evenodd;" width="1.8" height="1.8"/>
				</g>
				<g>
					<rect x="37.9" y="63.1" style="fill-rule:evenodd;clip-rule:evenodd;" width="1.8" height="1.8"/>
				</g>
				<g>
					<rect x="36" y="63.1" style="fill-rule:evenodd;clip-rule:evenodd;" width="1.8" height="1.8"/>
				</g>
				<g>
					<rect x="34.2" y="63.1" style="fill-rule:evenodd;clip-rule:evenodd;" width="1.8" height="1.8"/>
				</g>
				<g>
					<rect x="32.3" y="63.1" style="fill-rule:evenodd;clip-rule:evenodd;" width="1.8" height="1.8"/>
				</g>
				<g>
					<rect x="30.5" y="63.1" style="fill-rule:evenodd;clip-rule:evenodd;" width="1.8" height="1.8"/>
				</g>
				<g>
					<rect x="28.7" y="63.1" style="fill-rule:evenodd;clip-rule:evenodd;" width="1.8" height="1.8"/>
				</g>
				<g>
					<rect x="26.8" y="63.1" style="fill-rule:evenodd;clip-rule:evenodd;" width="1.8" height="1.8"/>
				</g>
				<g>
					<rect x="25" y="63.1" style="fill-rule:evenodd;clip-rule:evenodd;" width="1.8" height="1.8"/>
				</g>
				<g>
					<rect x="23.1" y="63.1" style="fill-rule:evenodd;clip-rule:evenodd;" width="1.8" height="1.8"/>
				</g>
				<g>
					<polygon style="fill-rule:evenodd;clip-rule:evenodd;" points="23.1,61.5 23.1,59 16.9,64 23.1,69 23.1,66.5 					"/>
				</g>
			</g>
		</g>
	</g>
	<g>
		<g>
			<g>
				<g>
					<path style="fill-rule:evenodd;clip-rule:evenodd;" d="M63.1,43.4L63.1,43.4C63.1,43.4,63.1,43.4,63.1,43.4
						c0,0.5,0.4,0.9,0.9,0.9c0.5,0,0.9-0.4,0.9-0.9c0,0,0,0,0,0h0v-1.8h-1.8V43.4z"/>
				</g>
				<g>
					<rect x="63.1" y="39.7" style="fill-rule:evenodd;clip-rule:evenodd;" width="1.8" height="1.8"/>
				</g>
				<g>
					<rect x="63.1" y="37.9" style="fill-rule:evenodd;clip-rule:evenodd;" width="1.8" height="1.8"/>
				</g>
				<g>
					<rect x="63.1" y="36" style="fill-rule:evenodd;clip-rule:evenodd;" width="1.8" height="1.8"/>
				</g>
				<g>
					<rect x="63.1" y="34.2" style="fill-rule:evenodd;clip-rule:evenodd;" width="1.8" height="1.8"/>
				</g>
				<g>
					<rect x="63.1" y="32.3" style="fill-rule:evenodd;clip-rule:evenodd;" width="1.8" height="1.8"/>
				</g>
				<g>
					<rect x="63.1" y="30.5" style="fill-rule:evenodd;clip-rule:evenodd;" width="1.8" height="1.8"/>
				</g>
				<g>
					<rect x="63.1" y="28.7" style="fill-rule:evenodd;clip-rule:evenodd;" width="1.8" height="1.8"/>
				</g>
				<g>
					<rect x="63.1" y="26.8" style="fill-rule:evenodd;clip-rule:evenodd;" width="1.8" height="1.8"/>
				</g>
				<g>
					<rect x="63.1" y="25" style="fill-rule:evenodd;clip-rule:evenodd;" width="1.8" height="1.8"/>
				</g>
				<g>
					<rect x="63.1" y="23.1" style="fill-rule:evenodd;clip-rule:evenodd;" width="1.8" height="1.8"/>
				</g>
				<g>
					<polygon style="fill-rule:evenodd;clip-rule:evenodd;" points="66.5,23.1 69,23.1 64,16.9 59,23.1 61.5,23.1 					"/>
				</g>
			</g>
		</g>
	</g>
	<path style="fill:none;stroke:#000000;stroke-miterlimit:10;" d="M64,44"/>
	<path style="fill:none;stroke:#000000;stroke-miterlimit:10;" d="M64,84"/>
	<g>
		<g>
			<g>
				<g>
					<path style="fill-rule:evenodd;clip-rule:evenodd;" d="M64.9,84.6L64.9,84.6C64.9,84.6,64.9,84.6,64.9,84.6
						c0-0.5-0.4-0.9-0.9-0.9c-0.5,0-0.9,0.4-0.9,0.9c0,0,0,0,0,0h0v1.8h1.8V84.6z"/>
				</g>
				<g>
					<rect x="63.1" y="86.5" style="fill-rule:evenodd;clip-rule:evenodd;" width="1.8" height="1.8"/>
				</g>
				<g>
					<rect x="63.1" y="88.3" style="fill-rule:evenodd;clip-rule:evenodd;" width="1.8" height="1.8"/>
				</g>
				<g>
					<rect x="63.1" y="90.1" style="fill-rule:evenodd;clip-rule:evenodd;" width="1.8" height="1.8"/>
				</g>
				<g>
					<rect x="63.1" y="92" style="fill-rule:evenodd;clip-rule:evenodd;" width="1.8" height="1.8"/>
				</g>
				<g>
					<rect x="63.1" y="93.8" style="fill-rule:evenodd;clip-rule:evenodd;" width="1.8" height="1.8"/>
				</g>
				<g>
					<rect x="63.1" y="95.7" style="fill-rule:evenodd;clip-rule:evenodd;" width="1.8" height="1.8"/>
				</g>
				<g>
					<rect x="63.1" y="97.5" style="fill-rule:evenodd;clip-rule:evenodd;" width="1.8" height="1.8"/>
				</g>
				<g>
					<rect x="63.1" y="99.3" style="fill-rule:evenodd;clip-rule:evenodd;" width="1.8" height="1.8"/>
				</g>
				<g>
					<rect x="63.1" y="101.2" style="fill-rule:evenodd;clip-rule:evenodd;" width="1.8" height="1.8"/>
				</g>
				<g>
					<rect x="63.1" y="103" style="fill-rule:evenodd;clip-rule:evenodd;" width="1.8" height="1.8"/>
				</g>
				<g>
					<polygon style="fill-rule:evenodd;clip-rule:evenodd;" points="61.5,104.9 59,104.9 64,111.1 69,104.9 66.5,104.9 					"/>
				</g>
			</g>
		</g>
	</g>
	<g>
		<path style="fill:none;" d="M62.3,10.5l0.3-2.4h-1V7.4h1.1L63,5.7h-1V5h1.1l0.3-2.3h0.7L63.8,5h1.2l0.3-2.3h0.7L65.8,5h1v0.7h-1.1
			l-0.2,1.7h1v0.7h-1.1L65,10.5h-0.7l0.3-2.4h-1.2l-0.3,2.4H62.3z M64.7,7.4L65,5.7h-1.2l-0.2,1.7H64.7z"/>
	</g>
	<g>
		<path d="M62.7,4.3V1.3h0.5v2.8L65,3.5V0.9h0.5v2.5l0.7-0.2V5l-0.7,0.2v2.7l0.7-0.2v1.9l-0.7,0.2v2.9H65V9.9l-1.8,0.6v2.7h-0.5
			v-2.5L62,10.9V9.1l0.8-0.3V6.1L62,6.4V4.5L62.7,4.3z M63.3,6v2.7L65,8.1V5.4L63.3,6z"/>
	</g>
	<g>
		<path d="M63.1,116.4v3.2v1.2c0.2-0.2,0.3-0.3,0.5-0.4c0.1-0.1,0.3-0.2,0.4-0.2s0.3-0.1,0.4-0.1c0.2,0,0.3,0,0.5,0
			c0.2,0,0.4,0,0.6,0.1c0.2,0.1,0.3,0.2,0.5,0.4c0.1,0.2,0.2,0.3,0.3,0.5c0.1,0.2,0.1,0.4,0.1,0.6c0,0.2,0,0.4-0.1,0.6
			c0,0.2-0.1,0.4-0.2,0.5c-0.1,0.2-0.2,0.4-0.4,0.5c-0.2,0.2-0.3,0.3-0.5,0.4c0,0-0.2,0.1-0.3,0.3c-0.2,0.1-0.3,0.3-0.5,0.4
			c-0.2,0.1-0.4,0.3-0.6,0.4c-0.2,0.1-0.4,0.3-0.6,0.4c-0.2,0.1-0.4,0.3-0.6,0.5V115h0.5V116.4z M64.6,121.2
			c-0.1-0.1-0.1-0.1-0.2-0.2s-0.2-0.1-0.3-0.1s-0.2,0-0.4,0.1c-0.1,0.1-0.2,0.2-0.3,0.4c-0.1,0.2-0.2,0.5-0.2,0.9s0,0.7,0,0.9v1.5
			c0.1-0.1,0.3-0.2,0.4-0.3c0.1-0.1,0.2-0.2,0.3-0.3c0.1-0.1,0.2-0.2,0.3-0.3c0.2-0.2,0.3-0.3,0.4-0.5c0.1-0.2,0.2-0.4,0.3-0.7
			c0.1-0.3,0.1-0.5,0.1-0.8C64.9,121.6,64.7,121.4,64.6,121.2z"/>
	</g>
	<g>
		<path d="M3.2,64c0.4-0.9,0.9-1.6,1.3-2s0.8-0.6,1.3-0.6c0.3,0,0.5,0,0.6,0.1c0.1,0.1,0.2,0.1,0.3,0.2c0.1,0.1,0.1,0.1,0.2,0.2
			c0.1,0.1,0.1,0.1,0.2,0.2c0,0.1,0.1,0.2,0.1,0.3c0.1-0.2,0.2-0.3,0.3-0.3c0.1-0.1,0.2-0.1,0.3-0.2c0.2-0.1,0.4-0.2,0.6-0.3
			c0.3-0.1,0.5-0.1,0.8-0.1c0.4,0,0.7,0.1,0.9,0.4c0.2,0.3,0.3,0.7,0.4,1.2c0,0,0,0.1,0,0.2c0,0.1,0,0.3-0.1,0.4
			c0,0.2-0.1,0.3-0.1,0.5c-0.1,0.2-0.1,0.4-0.2,0.5c-0.1,0.3-0.3,0.5-0.5,0.8S9.1,66,8.9,66.2c-0.2,0.2-0.5,0.3-0.7,0.5
			c-0.3,0.1-0.5,0.2-0.8,0.2c-0.2,0-0.4,0-0.5-0.1c-0.1-0.1-0.2-0.1-0.4-0.2c-0.1-0.1-0.2-0.1-0.3-0.2C6.1,66.2,6,66.1,5.9,66
			l-1.2,2.9L6,69v0.3H1.3V69l1.5-0.1c0.5-1.1,0.9-2.1,1.3-3c0.2-0.4,0.3-0.7,0.5-1.1c0.2-0.4,0.3-0.7,0.4-1c0.1-0.3,0.2-0.6,0.3-0.8
			s0.1-0.4,0.2-0.4c0-0.1,0-0.2,0-0.4C5.4,62.1,5.3,62,5.2,62c-0.2,0-0.4,0.1-0.6,0.3c-0.2,0.2-0.4,0.4-0.6,0.6
			c-0.2,0.2-0.3,0.4-0.4,0.6c-0.1,0.2-0.2,0.4-0.3,0.5c0,0-0.1,0-0.1,0C3.2,64,3.2,64,3.2,64z M8.9,62.6c0-0.2,0-0.3-0.1-0.4
			c-0.1-0.1-0.2-0.1-0.3-0.1c-0.2,0-0.3,0-0.5,0.1c-0.2,0.1-0.3,0.2-0.5,0.3s-0.3,0.3-0.4,0.5c-0.1,0.2-0.2,0.3-0.3,0.5
			c0,0.1-0.1,0.2-0.2,0.4c-0.1,0.1-0.1,0.3-0.2,0.5c-0.1,0.2-0.1,0.3-0.1,0.5c0,0.1-0.1,0.3-0.1,0.4c0,0,0,0.1,0,0.2
			s0.1,0.2,0.1,0.3s0.1,0.2,0.2,0.3s0.2,0.1,0.3,0.1c0.2,0,0.4-0.2,0.6-0.5c0.2-0.3,0.4-0.7,0.6-1.1s0.3-0.8,0.5-1.2
			S8.9,62.7,8.9,62.6z"/>
	</g>
	<g>
		<path d="M123.8,60.1c0,0.1,0,0.3-0.1,0.4s-0.1,0.3-0.2,0.4c-0.1,0.1-0.2,0.2-0.3,0.3c-0.1,0.1-0.3,0.1-0.5,0.1
			c-0.2,0-0.4-0.1-0.5-0.2c-0.1-0.2-0.1-0.3-0.1-0.5c0-0.1,0-0.2,0.1-0.3c0.1-0.1,0.1-0.2,0.2-0.2c0.1-0.1,0.2-0.1,0.3-0.2
			c0.1-0.1,0.2-0.2,0.3-0.3c0-0.1,0-0.2-0.1-0.2c-0.1,0-0.2,0-0.2,0c-0.2,0-0.4,0-0.6,0.1c-0.2,0.1-0.3,0.2-0.4,0.3
			c-0.1,0.1-0.2,0.3-0.3,0.5s-0.2,0.4-0.2,0.5c-0.1,0.1-0.1,0.4-0.2,0.7c-0.1,0.3-0.2,0.6-0.2,0.9h1.7v0.4h-0.9h-0.9
			c-0.1,0.1-0.1,0.3-0.2,0.5c-0.1,0.2-0.1,0.4-0.2,0.5c0,0.2-0.1,0.3-0.1,0.5c0,0.1-0.1,0.2-0.1,0.3c-0.1,0.2-0.2,0.5-0.2,0.6
			c-0.1,0.2-0.1,0.4-0.2,0.6c-0.1,0.2-0.1,0.4-0.2,0.6s-0.2,0.4-0.3,0.6c-0.2,0.4-0.4,0.8-0.7,1.3c-0.3,0.5-0.7,0.9-1.1,1.4
			c-0.3,0.3-0.6,0.5-1,0.7c-0.4,0.1-0.7,0.2-1,0.2c-0.1,0-0.2,0-0.4-0.1s-0.3-0.2-0.4-0.3s-0.2-0.3-0.3-0.4
			c-0.1-0.1-0.1-0.3-0.1-0.5c0-0.1,0-0.3,0.1-0.4c0-0.1,0.1-0.3,0.2-0.4s0.2-0.2,0.3-0.3s0.3-0.1,0.4-0.1c0.3,0,0.5,0.1,0.6,0.2
			c0.1,0.2,0.2,0.4,0.2,0.6c0,0.2-0.1,0.3-0.2,0.5c-0.1,0.1-0.2,0.2-0.3,0.3c-0.1,0.1-0.2,0.1-0.2,0.1c-0.1,0-0.1,0.1-0.1,0.1
			c0.1,0.1,0.1,0.1,0.1,0.1c0,0,0.1,0,0.1,0c0.2,0,0.4-0.1,0.5-0.2s0.3-0.3,0.5-0.6c0.1-0.2,0.3-0.5,0.4-0.8
			c0.1-0.3,0.2-0.5,0.3-0.8c0.1-0.3,0.2-0.5,0.2-0.7c0.1-0.2,0.1-0.3,0.1-0.4c0.1-0.3,0.2-0.6,0.2-0.9c0.1-0.3,0.2-0.6,0.3-0.9
			c0.1-0.3,0.2-0.6,0.3-0.9s0.2-0.7,0.3-1.1h-1.5v-0.4h1.7c0.1-0.3,0.3-0.7,0.5-0.9c0.2-0.3,0.3-0.5,0.5-0.8
			c0.4-0.6,0.9-1.1,1.4-1.4c0.5-0.3,1.1-0.4,1.7-0.4c0.3,0,0.5,0.1,0.8,0.3C123.7,59.5,123.8,59.8,123.8,60.1z"/>
	</g>
	<g>
		<g>
			<g>
				<polygon points="48.3,46.3 18.7,17.4 26.8,9.2 1.3,2.7 8.4,28 16.5,19.7 46.1,48.6 				"/>
			</g>
		</g>
	</g>
	<text transform="matrix(1.1077 0 0 1 47.2342 59.9129)"><tspan x="0" y="0" style="font-family:'ArialNarrow'; font-size:13.8358px;">click &amp;</tspan><tspan x="0" y="16.6" style="font-family:'ArialNarrow'; font-size:13.8358px;">drag</tspan></text>
</g>
<g id="Layer_2">
</g>
</svg>
